Coordinates
version=1
nRows=19
nColumns=34
inDegrees=yes

Units are S.I. units (second, meters, Newtons, ...)
If the header above contains a line with 'inDegrees', this indicates whether rotational values are in degrees (yes) or radians (no).

endheader
time	pelvis_tilt	pelvis_list	pelvis_rotation	pelvis_tx	pelvis_ty	pelvis_tz	hip_flexion_r	hip_adduction_r	hip_rotation_r	knee_angle_r	ankle_angle_r	subtalar_angle_r	mtp_angle_r	hip_flexion_l	hip_adduction_l	hip_rotation_l	knee_angle_l	ankle_angle_l	subtalar_angle_l	mtp_angle_l	lumbar_extension	lumbar_bending	lumbar_rotation	arm_flex_r	arm_add_r	arm_rot_r	elbow_flex_r	pro_sup_r	arm_flex_l	arm_add_l	arm_rot_l	elbow_flex_l	pro_sup_l
      0.00000000	      1.63374525	     -1.73983786	     -1.02145812	     -0.07351025	      1.24571861	     -0.08076935	     -5.53597219	     -0.09590815	     -1.19031679	      0.00026643	     10.42518254	     -1.73369943	      0.00000000	     -5.14745007	     -2.96367831	     -5.19818239	      1.58571940	     13.56896760	      3.74150155	      0.00000000	     -7.42329610	      0.52845228	     -2.96560375	      5.90261533	     -7.25706857	     30.21560752	     27.03995149	     70.64796610	      4.07635483	     -7.02120383	     25.45747355	     25.15957071	     63.62893716
      0.01666670	     -0.09500149	     -2.42126403	     -0.68567070	     -0.06921691	      1.24049318	     -0.07939520	     -3.78985984	      0.80586659	      0.69149539	      0.80183154	     11.56021694	     -2.17885835	      0.00000000	     -3.33379693	     -3.44675318	     -3.53231532	      1.69066594	     12.23570970	      0.31191012	      0.00000000	     -4.41743256	      1.30883059	     -3.33687007	      5.49814682	     -7.01591331	     29.83764737	     25.59108617	     71.21209689	      3.15728981	     -7.60434655	     28.00855251	     27.24497822	     65.35367901
      0.03333330	     -0.61426842	     -1.59318159	     -1.42812641	     -0.07204417	      1.24442164	     -0.07964158	     -3.41413306	     -0.18282457	      0.70620215	      0.17690737	     11.20883127	     -1.83265515	      0.00000000	     -3.05296348	     -2.56129036	     -4.12697878	      1.23078506	     11.83691814	      0.31831531	      0.00000000	     -3.78291712	      0.18645093	     -3.04725947	      5.59106691	     -6.73345917	     30.01761928	     25.74608091	     71.36701234	      3.16500941	     -8.03267610	     28.29757351	     27.09143548	     65.57084494
      0.05000000	     -1.30100567	     -1.18792582	     -1.91620884	     -0.07108590	      1.24437240	     -0.07922260	     -2.60177584	     -0.68282157	      0.94924434	      0.00000000	     11.29386795	     -1.42738005	      0.00000000	     -2.80894997	     -2.05905585	     -4.63715367	      0.34377290	     11.36769623	      1.15214170	      0.00000000	     -2.57209141	     -0.40949021	     -1.79583922	      5.17694772	     -6.78316303	     30.95310012	     25.23992916	     73.58948579	      4.15972266	     -8.12197659	     33.05820516	     25.13708619	     69.23387516
      0.06666670	     -1.42738475	     -1.10038456	     -2.18772131	     -0.07220343	      1.24495064	     -0.07895691	     -2.43125398	     -0.82518686	      0.98426311	      0.00000000	     11.22133507	     -1.36667190	      0.00000000	     -2.82942265	     -1.89955390	     -4.52925940	      0.00000000	     11.37806172	      1.18849934	      0.00000000	     -2.62573649	     -0.37445015	     -1.72303287	      5.29763112	     -6.69522751	     30.91206093	     25.28579976	     73.60872294	      4.10828216	     -8.00391711	     33.07550069	     25.14047275	     69.26567108
      0.08333330	     -1.51882062	     -0.94097971	     -2.47095778	     -0.07388195	      1.24497844	     -0.07860891	     -2.18872070	     -0.99672067	      1.22553809	      0.00000000	     11.09400514	     -1.17888491	      0.00000000	     -2.62607363	     -1.68901992	     -4.21639003	      0.00000000	     11.39142631	      1.34011343	      0.00000000	     -2.62044504	     -0.44658299	     -1.51998561	      5.52320115	     -6.54623559	     30.81386886	     25.34491988	     73.63817381	      4.06971938	     -7.85826091	     33.04952830	     25.14775385	     69.31300493
      0.10000000	     -2.55411595	     -0.82762397	     -2.69969515	     -0.07458629	      1.24122634	     -0.07821338	     -0.95595642	     -1.06062927	      1.69496823	      0.00000000	     10.93399109	     -1.38658234	      0.00000000	     -1.41433442	     -1.61813946	     -4.15408686	      0.00000000	     11.42080256	      1.38909465	      0.00000000	     -1.23799562	     -0.56405291	     -0.57947120	      4.76981342	     -6.33524135	     28.87618773	     25.01307046	     74.09039225	      4.04099671	     -7.54678961	     31.82780206	     25.14303710	     70.06886947
      0.11666670	     -2.51141360	     -0.81591615	     -2.71564866	     -0.07284016	      1.24200377	     -0.07855331	     -0.97043535	     -1.06365356	      1.70122273	      0.00000000	     10.93478772	     -1.38426596	      0.00000000	     -1.35604802	     -1.62914556	     -4.14365684	      0.00000000	     11.42935520	      1.39153866	      0.00000000	     -1.23964596	     -0.56558934	     -0.57962943	      4.77224565	     -6.32742385	     28.87269136	     25.01607567	     74.09161312	      4.04489623	     -7.54069508	     31.82530623	     25.14558989	     70.07068750
      0.13333330	     -2.61111588	     -0.81683148	     -2.64123596	     -0.07516850	      1.23973179	     -0.07872102	     -0.81261147	     -1.04854129	      2.00792875	      0.00000000	     11.13407340	     -1.40712229	      0.00000000	     -1.12201032	     -1.66008616	     -3.63611709	      0.00000000	     12.11655560	      1.41592462	      0.00000000	     -1.27388815	     -0.57239798	     -0.45835254	      4.77353841	     -6.20674274	     28.48756466	     25.11354900	     74.18455065	      4.19778227	     -7.45084841	     31.48366797	     25.32451328	     70.21573974
      0.15000000	     -2.59233954	     -0.81573892	     -2.54817225	     -0.07616903	      1.23837507	     -0.07849470	     -0.84589274	     -1.03228637	      2.03074095	      0.00000000	     11.10919335	     -1.41078686	      0.00000000	     -1.08657013	     -1.68636707	     -3.71689912	      0.00000000	     12.10980652	      1.36254605	      0.00000000	     -1.21128869	     -0.56557644	     -0.47320039	      4.73500047	     -6.15167256	     28.44129517	     25.13323545	     74.19906296	      4.28431597	     -7.40994889	     31.42675732	     25.38816848	     70.23699648
      0.16666670	     -2.87703930	     -0.76341023	     -2.63395376	     -0.07583464	      1.23855092	     -0.07801608	     -0.53028019	     -1.03754597	      2.36648657	      0.00000000	     10.85160196	     -1.92058395	      0.00000000	     -0.80154647	     -1.68726347	     -3.79047625	      0.00000000	     11.71704000	      0.89925064	      0.00000000	     -1.10600113	     -0.71115487	     -0.19207560	      3.61858670	     -5.29935531	     19.54354339	     26.28322704	     88.12519056	      3.32696660	     -6.73826651	     21.72337602	     26.86192970	     87.58742559
      0.18333330	     -2.85982617	     -0.75627842	     -2.61627428	     -0.07660906	      1.23778581	     -0.07870503	     -0.52562711	     -1.04209678	      2.36754234	      0.00000000	     10.85087559	     -1.92049307	      0.00000000	     -0.79370200	     -1.71033842	     -3.80622015	      0.00000000	     11.72431841	      0.88702012	      0.00000000	     -1.10269610	     -0.70562348	     -0.18986453	      3.62085284	     -5.30359047	     19.54348653	     26.28358910	     88.12529113	      3.32869382	     -6.73787075	     21.72376100	     26.86598838	     87.58793548
      0.20000000	     -2.84997193	     -0.78737503	     -2.44234545	     -0.07712557	      1.23205500	     -0.07763214	     -0.57624105	     -0.98320046	      2.36776579	      0.00000000	     10.82638135	     -1.92653259	      0.00000000	     -0.74944439	     -1.75628760	     -3.93500363	      0.00000000	     11.75263056	      0.79184980	      0.00000000	     -1.07973799	     -0.67371617	     -0.16032601	      3.63937666	     -5.34737972	     19.54394354	     26.28822265	     88.12617260	      3.35224695	     -6.78705523	     21.71763647	     26.89608878	     87.58979013
      0.21666670	     -2.83847375	     -0.90122757	     -2.33250733	     -0.07577430	      1.23371497	     -0.07784047	     -0.66408498	     -0.83046816	      2.20283864	      0.00000000	     10.73774745	     -2.03911256	      0.00000000	     -0.74549775	     -1.92476822	     -4.23293192	      0.00000000	     11.68484338	      0.58973990	      0.00000000	     -0.99680282	     -0.59021064	     -0.13591741	      3.52826019	     -5.45510934	     19.55874883	     26.26903639	     88.13010089	      3.38946857	     -6.93587326	     21.70222831	     26.97854146	     87.59394217
      0.23333330	     -3.05629871	     -1.00955490	     -2.39776860	     -0.07667242	      1.23370376	     -0.07816067	     -0.43148588	     -0.69393732	      2.37568073	      0.00000000	     10.22463355	     -2.61179095	      0.00000000	     -0.54198625	     -2.05166341	     -4.09764753	      0.00000000	     11.01458016	     -0.31124741	      0.00000000	     -0.81292590	     -0.39982502	      0.34886503	      3.19123073	     -5.80234792	     19.84705186	     26.69724551	     88.18939067	      3.18249436	     -7.17351735	     21.88891603	     28.19443211	     87.70122665
      0.25000000	     -3.08030982	     -1.00642166	     -2.32002089	     -0.07403023	      1.24061475	     -0.08003287	     -0.46395784	     -0.72871477	      2.38068575	      0.00000000	     10.18120659	     -2.60268237	      0.00000000	     -0.56302456	     -2.03857398	     -4.13886825	      0.00000000	     10.95059919	     -0.32097452	      0.00000000	     -0.79408521	     -0.35082732	      0.34384609	      3.13509128	     -5.81286981	     19.85243074	     26.69168945	     88.19014047	      3.12288919	     -7.19690978	     21.89279945	     28.18305815	     87.70357078
      0.26666670	     -3.08696472	     -1.02460331	     -2.44136251	     -0.07402912	      1.24523100	     -0.08106118	     -0.43642524	     -0.78680059	      2.34527522	      0.00000000	     10.13149867	     -2.60124668	      0.00000000	     -0.58475655	     -1.99081384	     -4.10906383	      0.00000000	     10.82928175	     -0.26873816	      0.00000000	     -0.79036178	     -0.27776802	      0.30493273	      3.03594920	     -5.88183892	     19.85076662	     26.66141510	     88.19023303	      3.05946881	     -7.23031593	     21.89482309	     28.16511430	     87.70577133
      0.28333330	     -3.02257417	     -1.07034995	     -2.44294412	     -0.07765439	      1.23986476	     -0.08011411	     -0.42264278	     -0.79417874	      2.34579533	      0.00000000	     10.13051904	     -2.59950268	      0.00000000	     -0.54847263	     -1.95116292	     -4.10252657	      0.00000000	     10.82029324	     -0.26021923	      0.00000000	     -0.78782821	     -0.26902411	      0.30761120	      3.03121089	     -5.88991043	     19.85016694	     26.65915005	     88.19021803	      3.04881594	     -7.23763696	     21.89447663	     28.16149343	     87.70589928
      0.30000000	     -3.11007618	     -1.03644600	     -2.47400608	     -0.07420634	      1.24499699	     -0.08203363	     -0.23086137	     -0.89079996	      2.44041334	      0.00000000	     10.07216749	     -2.52428726	      0.00000000	     -0.47586264	     -1.83178686	     -3.88455798	      0.00000000	     10.60642605	     -0.04193900	      0.00000000	     -0.84559833	     -0.08539099	      0.33101837	      3.06325213	     -6.08050913	     19.82015125	     26.62549764	     88.18772488	      3.00234663	     -7.38627584	     21.87214740	     28.10964143	     87.70606877
